<?xml version="1.0" encoding="UTF-8" standalone="no"?>
<!-- Created with Inkscape (http://www.inkscape.org/) -->

<svg
   viewBox="0 0 194.38512 41.746123"
   version="1.1"
   id="svg5"
   inkscape:version="1.1 (c4e8f9ed74, 2021-05-24)"
   sodipodi:docname="foodi-dark-text.svg"
   width="734.6839"
   height="157.78062"
   xmlns:inkscape="http://www.inkscape.org/namespaces/inkscape"
   xmlns:sodipodi="http://sodipodi.sourceforge.net/DTD/sodipodi-0.dtd"
   xmlns="http://www.w3.org/2000/svg"
   xmlns:svg="http://www.w3.org/2000/svg">
  <sodipodi:namedview
     id="namedview7"
     pagecolor="#ffffff"
     bordercolor="#666666"
     borderopacity="1.0"
     inkscape:pageshadow="2"
     inkscape:pageopacity="0.0"
     inkscape:pagecheckerboard="true"
     inkscape:document-units="mm"
     showgrid="false"
     units="px"
     width="800px"
     fit-margin-top="0"
     fit-margin-left="0"
     fit-margin-right="0"
     fit-margin-bottom="0"
     inkscape:zoom="0.96102398"
     inkscape:cx="388.64795"
     inkscape:cy="77.0012"
     inkscape:window-width="1920"
     inkscape:window-height="1011"
     inkscape:window-x="0"
     inkscape:window-y="0"
     inkscape:window-maximized="1"
     inkscape:current-layer="layer2"
     showborder="true"
     inkscape:showpageshadow="false"
     showguides="false"
     scale-x="1" />
  <defs
     id="defs2" />
  <g
     inkscape:groupmode="layer"
     id="layer3"
     inkscape:label="Logo"
     transform="translate(72.654281,-0.04931599)">
    <g
       id="g216"
       transform="matrix(0.09789419,0,0,0.08137774,-74.111225,0.0892679)"
       style="fill:#217844;stroke:#404e40;stroke-opacity:1">
      <g
         id="g116"
         style="fill:#217844;stroke:#404e40;stroke-opacity:1">
        <g
           id="g114"
           style="fill:#217844;stroke:#404e40;stroke-opacity:1">
          <path
             d="m 490.638,118.806 c -7.864,-11.565 -22.053,-17.299 -39.956,-16.138 -15.864,1.027 -33.234,7.466 -48.908,18.131 -6.311,4.291 -12.125,9.138 -17.256,14.341 10.525,-22.849 15.129,-45.867 13.351,-67.439 -1.858,-22.525 -10.711,-42.758 -24.291,-55.51 -13.612,-12.783 -30.225,-15.703 -42.324,-7.438 -16.914,11.555 -15.773,28.089 -14.668,44.08 1.056,15.299 2.237,32.444 -8.381,54.234 -15.791,-3.799 -33.456,-5.729 -52.667,-5.729 -18.897,0 -36.282,1.869 -51.831,5.545 -10.528,-21.708 -9.348,-38.801 -8.294,-54.055 1.105,-15.988 2.248,-32.521 -14.668,-44.078 -12.267,-8.373 -28.469,-5.539 -42.277,7.401 -13.56,12.708 -22.423,32.882 -24.316,55.352 -1.823,21.627 2.774,44.722 13.333,67.643 -5.132,-5.203 -10.944,-10.054 -17.254,-14.347 -15.676,-10.665 -33.046,-17.105 -48.91,-18.132 -17.902,-1.166 -32.09,4.572 -39.954,16.135 -7.867,11.56 -7.987,26.861 -0.338,43.086 6.781,14.383 19.147,28.174 34.818,38.831 14.98,10.199 31.167,16.404 46.133,17.916 -3.552,22.453 -4.055,47.84 -1.533,77.166 2.244,26.077 7.487,51.06 15.58,74.33 -2.653,8.85 -3.996,18.865 -3.996,29.836 0,61.776 41.883,112.034 93.364,112.034 18.241,0 35.566,-6.123 50.607,-17.801 15.041,11.679 32.366,17.801 50.607,17.801 51.48,0 93.364,-50.258 93.364,-112.034 0,-10.883 -1.317,-20.807 -3.917,-29.562 8.05,-23.309 13.278,-48.383 15.534,-74.605 2.477,-28.799 1.899,-54.663 -1.688,-77.132 14.962,-1.477 31.187,-7.695 46.251,-17.945 15.676,-10.66 28.044,-24.451 34.824,-38.834 7.647,-16.224 7.526,-31.526 -0.339,-43.083 z M 337.733,47.374 c -1.125,-16.28 -0.732,-20.874 5.478,-25.117 4.044,-2.762 10.882,0.712 15.857,5.387 9.657,9.068 16.266,24.695 17.676,41.799 1.565,18.986 -2.973,39.625 -13.138,60.31 -10.138,-8.381 -21.83,-15.18 -34.975,-20.317 11.619,-25.579 10.186,-46.357 9.102,-62.062 z m -202.459,21.91 c 1.437,-17.057 8.05,-32.633 17.688,-41.665 4.969,-4.657 11.79,-8.118 15.829,-5.364 6.21,4.243 6.602,8.835 5.476,25.111 -1.082,15.647 -2.51,36.342 8.985,61.804 -13.191,5.095 -24.907,11.857 -35.04,20.202 C 138.15,108.756 133.68,88.195 135.274,69.284 Z M 106.38,197.723 C 94.46,197.052 80.54,191.89 67.769,183.194 55.362,174.758 45.313,163.697 40.199,152.849 35.943,143.82 35.465,135.758 38.89,130.724 c 3.422,-5.033 11.096,-7.551 21.059,-6.906 11.966,0.775 25.946,6.061 38.356,14.505 9.524,6.48 17.557,14.374 23.133,22.637 -6.36,10.861 -11.401,23.177 -15.058,36.763 z m 284.089,96.259 c -1.499,17.413 -4.392,34.259 -8.627,50.33 -5.973,-6.716 -13.385,-12.166 -22.215,-16.281 -5.306,-2.474 -11.611,-0.175 -14.083,5.13 -2.472,5.306 -0.176,11.611 5.131,14.083 11.978,5.582 19.893,14.261 24.201,26.542 2.587,7.352 3.899,16.161 3.899,26.181 0,50.088 -32.373,90.837 -72.167,90.837 -15.739,0 -30.717,-6.313 -43.315,-18.256 -4.088,-3.876 -10.495,-3.876 -14.584,0 -12.598,11.944 -27.576,18.256 -43.315,18.256 -39.792,0 -72.167,-40.749 -72.167,-90.837 0,-10.005 1.317,-18.82 3.904,-26.205 0.078,-0.206 0.16,-0.41 0.225,-0.622 8.375,-22.935 30.008,-33.627 68.037,-33.627 8.413,0 16.143,0.55 22.98,1.634 18.332,2.901 36.922,2.901 55.259,0 4.326,-0.687 9.031,-1.163 13.984,-1.414 5.846,-0.297 10.345,-5.277 10.047,-11.123 -0.298,-5.846 -5.295,-10.351 -11.122,-10.047 -5.703,0.289 -11.165,0.845 -16.227,1.648 -16.135,2.552 -32.496,2.552 -48.624,0 -7.928,-1.258 -16.775,-1.896 -26.297,-1.896 -21.576,0 -38.874,3.156 -52.88,9.649 -8.849,4.103 -16.279,9.543 -22.272,16.254 -4.274,-16.061 -7.184,-32.876 -8.677,-50.235 -2.789,-32.419 -1.604,-60.542 3.527,-83.602 3.723,-16.836 9.652,-31.472 17.641,-43.534 3.096,-4.71 6.577,-9.113 10.371,-13.11 12.279,-13.031 28.484,-22.554 48.161,-28.306 15.657,-4.576 33.917,-6.896 54.273,-6.896 20.647,0 39.165,2.387 55.036,7.094 19.607,5.819 35.794,15.401 48.141,28.51 1.47,1.548 2.893,3.162 4.234,4.796 2.178,2.654 4.236,5.447 6.137,8.328 7.931,11.94 13.878,26.459 17.67,43.149 5.243,23.135 6.493,51.252 3.714,83.57 z m 81.332,-141.131 c -5.114,10.848 -15.162,21.907 -27.573,30.347 -12.895,8.777 -26.883,13.949 -38.807,14.553 -3.701,-13.48 -8.754,-25.697 -15.083,-36.454 5.593,-8.396 13.704,-16.407 23.356,-22.97 12.411,-8.444 26.39,-13.73 38.356,-14.505 9.965,-0.642 17.637,1.873 21.06,6.908 3.427,5.028 2.949,13.092 -1.309,22.121 z"
             id="path112"
             style="fill:#217844;stroke:#404e40;stroke-opacity:1" />
        </g>
      </g>
      <g
         id="g122"
         style="fill:#217844;stroke:#404e40;stroke-opacity:1">
        <g
           id="g120"
           style="fill:#217844;stroke:#404e40;stroke-opacity:1">
          <path
             d="m 328.712,319.612 c -1.104,-0.14 -2.218,-0.267 -3.339,-0.384 -5.826,-0.609 -11.032,3.624 -11.636,9.446 -0.606,5.821 3.624,11.031 9.445,11.636 0.961,0.1 1.918,0.21 2.865,0.331 0.453,0.057 0.902,0.085 1.346,0.085 5.26,0 9.824,-3.913 10.501,-9.268 0.735,-5.807 -3.376,-11.11 -9.182,-11.846 z"
             id="path118"
             style="fill:#217844;stroke:#404e40;stroke-opacity:1" />
        </g>
      </g>
      <g
         id="g128"
         style="fill:#217844;stroke:#404e40;stroke-opacity:1">
        <g
           id="g126"
           style="fill:#217844;stroke:#404e40;stroke-opacity:1">
          <path
             d="m 200.806,365.846 c -18.322,0 -33.229,14.906 -33.229,33.228 0,18.322 14.906,33.229 33.229,33.229 18.323,0 33.227,-14.906 33.227,-33.229 0,-18.323 -14.906,-33.228 -33.227,-33.228 z m 0,45.259 c -6.634,0 -12.031,-5.397 -12.031,-12.031 0,-6.634 5.397,-12.03 12.031,-12.03 6.634,0 12.03,5.397 12.03,12.03 0,6.634 -5.397,12.031 -12.03,12.031 z"
             id="path124"
             style="fill:#217844;stroke:#404e40;stroke-opacity:1" />
        </g>
      </g>
      <g
         id="g134"
         style="fill:#217844;stroke:#404e40;stroke-opacity:1">
        <g
           id="g132"
           style="fill:#217844;stroke:#404e40;stroke-opacity:1">
          <path
             d="m 311.196,365.846 c -18.322,0 -33.229,14.906 -33.229,33.228 0,18.322 14.906,33.229 33.229,33.229 18.323,0 33.227,-14.906 33.227,-33.229 0,-18.323 -14.905,-33.228 -33.227,-33.228 z m 0,45.259 c -6.634,0 -12.031,-5.397 -12.031,-12.031 0,-6.634 5.398,-12.03 12.031,-12.03 6.634,0 12.03,5.397 12.03,12.03 -10e-4,6.634 -5.396,12.031 -12.03,12.031 z"
             id="path130"
             style="fill:#217844;stroke:#404e40;stroke-opacity:1" />
        </g>
      </g>
      <g
         id="g140"
         style="fill:#217844;stroke:#404e40;stroke-opacity:1">
        <g
           id="g138"
           style="fill:#217844;stroke:#404e40;stroke-opacity:1">
          <path
             d="m 175.96,233.93 c -5.854,0 -10.599,4.745 -10.599,10.599 v 6.474 c 0,5.854 4.745,10.599 10.599,10.599 5.854,0 10.599,-4.745 10.599,-10.599 v -6.474 c -0.001,-5.854 -4.746,-10.599 -10.599,-10.599 z"
             id="path136"
             style="fill:#217844;stroke:#404e40;stroke-opacity:1" />
        </g>
      </g>
      <g
         id="g146"
         style="fill:#217844;stroke:#404e40;stroke-opacity:1">
        <g
           id="g144"
           style="fill:#217844;stroke:#404e40;stroke-opacity:1">
          <path
             d="m 336.041,233.93 c -5.853,0 -10.599,4.745 -10.599,10.599 v 6.474 c 0,5.854 4.746,10.599 10.599,10.599 5.853,0 10.599,-4.745 10.599,-10.599 v -6.474 c 0,-5.854 -4.745,-10.599 -10.599,-10.599 z"
             id="path142"
             style="fill:#217844;stroke:#404e40;stroke-opacity:1" />
        </g>
      </g>
      <g
         id="g148"
         style="fill:#217844;stroke:#404e40;stroke-opacity:1" />
      <g
         id="g150"
         style="fill:#217844;stroke:#404e40;stroke-opacity:1" />
      <g
         id="g152"
         style="fill:#217844;stroke:#404e40;stroke-opacity:1" />
      <g
         id="g154"
         style="fill:#217844;stroke:#404e40;stroke-opacity:1" />
      <g
         id="g156"
         style="fill:#217844;stroke:#404e40;stroke-opacity:1" />
      <g
         id="g158"
         style="fill:#217844;stroke:#404e40;stroke-opacity:1" />
      <g
         id="g160"
         style="fill:#217844;stroke:#404e40;stroke-opacity:1" />
      <g
         id="g162"
         style="fill:#217844;stroke:#404e40;stroke-opacity:1" />
      <g
         id="g164"
         style="fill:#217844;stroke:#404e40;stroke-opacity:1" />
      <g
         id="g166"
         style="fill:#217844;stroke:#404e40;stroke-opacity:1" />
      <g
         id="g168"
         style="fill:#217844;stroke:#404e40;stroke-opacity:1" />
      <g
         id="g170"
         style="fill:#217844;stroke:#404e40;stroke-opacity:1" />
      <g
         id="g172"
         style="fill:#217844;stroke:#404e40;stroke-opacity:1" />
      <g
         id="g174"
         style="fill:#217844;stroke:#404e40;stroke-opacity:1" />
      <g
         id="g176"
         style="fill:#217844;stroke:#404e40;stroke-opacity:1" />
    </g>
  </g>
  <g
     inkscape:groupmode="layer"
     id="layer2"
     inkscape:label="Name"
     transform="translate(72.654281,-0.04931599)">
    <g
       aria-label="Foodi"
       transform="matrix(1.0349326,0,0,0.96624651,-80.657375,-4.5890179)"
       id="text16278"
       style="font-size:58.3206px;line-height:1.25;font-family:'Gochi Hand';-inkscape-font-specification:'Gochi Hand';letter-spacing:0px;word-spacing:0px;fill:#f2f2f2;stroke-width:0.455629">
      <path
         d="m 67.838195,21.719964 q -0.54106,0 -1.252982,0.199338 -0.711921,0.170861 -1.480796,0.427153 -0.768875,0.227815 -1.53775,0.427153 -0.740398,0.170861 -1.338412,0.170861 -0.626491,0 -0.99669,-0.199338 -0.341723,-0.227815 -0.512584,-0.569537 -0.170861,-0.341723 -0.199338,-0.740399 -0.02848,-0.398676 -0.02848,-0.768875 0,-1.08212 0.626491,-1.765565 0.654968,-0.683444 1.850996,-1.139074 1.196028,-0.484106 2.876162,-0.797352 1.708611,-0.341722 3.844376,-0.740398 3.360268,-0.626491 6.122523,-0.968213 2.790732,-0.341722 5.296695,-0.484107 2.53444,-0.170861 4.954973,-0.199338 2.420533,-0.02848 5.097357,-0.02848 0.797352,0 1.252982,0.199338 0.455629,0.199338 0.654967,0.512583 0.227815,0.313245 0.256292,0.711921 0.05695,0.398676 0.05695,0.797352 0,0.45563 -0.142385,0.99669 -0.113907,0.512584 -0.427152,0.968213 -0.284769,0.427153 -0.797352,0.711922 -0.484107,0.284768 -1.196028,0.284768 h -2.278149 q -1.366889,0 -2.904639,0.02848 -1.53775,0 -3.047023,0.05695 -1.509274,0.02848 -2.904639,0.113907 -1.366889,0.08543 -2.44901,0.256292 -1.053644,0.142384 -1.680134,0.370199 -0.626491,0.227815 -0.626491,0.569537 0,0.341722 0.256292,1.139074 0.256291,0.797352 0.62649,1.737088 0.370199,0.91126 0.740399,1.822519 0.398676,0.882783 0.654967,1.480796 0.227815,0.484107 0.512584,0.654968 0.284768,0.170861 0.768875,0.170861 1.167551,0 2.392055,-0.142384 1.224505,-0.142384 2.44901,-0.313245 1.252982,-0.199338 2.477486,-0.341723 1.252982,-0.142384 2.477487,-0.142384 0.683444,0 1.110597,0.256292 0.45563,0.227815 0.711921,0.598014 0.256292,0.341722 0.341723,0.740398 0.113907,0.398676 0.113907,0.683444 0,1.281459 -0.797352,1.936427 -0.797352,0.62649 -2.164241,0.939736 -1.366889,0.313245 -3.189408,0.427153 -1.794041,0.113907 -3.815898,0.313245 l -0.683445,0.05695 q -0.370199,0.05695 -0.569537,0.256291 -0.199338,0.199338 -0.199338,0.512584 0,0.08543 0.02848,0.142384 0.02848,0.05695 0.02848,0.142384 0.256292,0.939737 0.598014,2.107288 0.341722,1.139074 0.626491,2.278148 0.313245,1.139074 0.512583,2.164241 0.199338,1.025167 0.199338,1.680134 0,1.309936 -0.99669,1.99338 -0.968213,0.683445 -2.762255,0.683445 -0.654967,0 -1.281458,-0.313246 -0.598014,-0.284768 -0.740398,-1.08212 -0.45563,-2.335102 -1.025167,-4.556297 -0.569537,-2.249671 -1.196028,-4.470866 -0.256292,-0.768875 -0.99669,-0.768875 -0.854306,0 -1.936426,-0.05695 -1.053644,-0.05695 -2.164241,-0.227815 -1.110597,-0.170861 -2.164241,-0.427153 -1.025167,-0.284768 -1.850996,-0.740398 -0.797351,-0.455629 -1.309935,-1.08212 -0.484106,-0.626491 -0.484106,-1.480797 0,-0.54106 0.256291,-1.053643 0.256292,-0.541061 0.654968,-0.939737 0.398676,-0.427152 0.854306,-0.683444 0.484106,-0.256292 0.911259,-0.256292 0.512583,0 1.110597,0.256292 0.598014,0.256292 1.281459,0.569537 0.683444,0.313245 1.452319,0.569537 0.797352,0.256292 1.708612,0.256292 0.455629,0 0.455629,-0.484107 0,-0.455629 -0.170861,-1.196028 Q 70.60045,26.19083 70.344158,25.393478 70.087867,24.567649 69.746144,23.798774 69.432899,23.001422 69.0627,22.460362 68.834885,22.11864 68.578593,21.919302 68.350778,21.719964 67.838195,21.719964 Z"
         id="path20723" />
      <path
         d="m 93.609749,33.082229 q 0,-0.484107 0.113907,-1.08212 0.113908,-0.598014 0.113908,-1.309936 0,-0.484106 -0.427153,-0.740398 -0.398676,-0.256292 -0.911259,-0.569537 -0.512584,-0.313246 -0.939737,-0.797352 -0.398676,-0.484107 -0.398676,-1.395366 0,-0.654968 0.341723,-1.309935 0.370199,-0.654968 1.053643,-1.196028 1.680135,-1.252982 3.474177,-2.249672 1.822518,-0.99669 3.61656,-1.680134 1.822518,-0.683445 3.588088,-1.053644 1.76556,-0.370199 3.38874,-0.370199 2.73378,0 5.12584,1.025167 2.42053,0.99669 4.18609,2.762255 1.79404,1.737088 2.81921,4.100667 1.05365,2.335102 1.05365,5.011926 0,2.619871 -1.1106,4.98345 -1.08212,2.335102 -2.93312,4.100667 -1.85099,1.765565 -4.35696,2.790732 -2.47748,1.053643 -5.23974,1.053643 -2.7053,0 -5.01192,-0.911259 -2.30663,-0.911259 -3.986764,-2.505963 -1.680135,-1.623181 -2.619871,-3.815899 -0.939736,-2.221194 -0.939736,-4.841065 z m 13.184781,6.948353 q 1.19603,0 2.47749,-0.484107 1.28146,-0.484106 2.3351,-1.395366 1.08212,-0.939736 1.76557,-2.278148 0.71192,-1.338412 0.71192,-3.018547 0,-1.708611 -0.62649,-3.189408 -0.62649,-1.480796 -1.73709,-2.562916 -1.08212,-1.110598 -2.5914,-1.737089 -1.48079,-0.62649 -3.21788,-0.62649 -3.16093,0 -4.84107,1.651657 -1.68013,1.623181 -1.68013,5.011927 0,1.850995 0.541061,3.445699 0.569539,1.566227 1.566229,2.733778 0.99669,1.139074 2.3351,1.794042 1.36689,0.654968 2.96159,0.654968 z"
         id="path20725" />
      <path
         d="m 123.88065,33.082229 q 0,-0.484107 0.11391,-1.08212 0.1139,-0.598014 0.1139,-1.309936 0,-0.484106 -0.42715,-0.740398 -0.39868,-0.256292 -0.91126,-0.569537 -0.51258,-0.313246 -0.93974,-0.797352 -0.39867,-0.484107 -0.39867,-1.395366 0,-0.654968 0.34172,-1.309935 0.3702,-0.654968 1.05364,-1.196028 1.68014,-1.252982 3.47418,-2.249672 1.82252,-0.99669 3.61656,-1.680134 1.82252,-0.683445 3.58808,-1.053644 1.76557,-0.370199 3.38875,-0.370199 2.73378,0 5.12583,1.025167 2.42054,0.99669 4.1861,2.762255 1.79404,1.737088 2.81921,4.100667 1.05364,2.335102 1.05364,5.011926 0,2.619871 -1.11059,4.98345 -1.08212,2.335102 -2.93312,4.100667 -1.85099,1.765565 -4.35696,2.790732 -2.47748,1.053643 -5.23974,1.053643 -2.7053,0 -5.01193,-0.911259 -2.30662,-0.911259 -3.98676,-2.505963 -1.68013,-1.623181 -2.61987,-3.815899 -0.93973,-2.221194 -0.93973,-4.841065 z m 13.18478,6.948353 q 1.19603,0 2.47749,-0.484107 1.28146,-0.484106 2.3351,-1.395366 1.08212,-0.939736 1.76556,-2.278148 0.71193,-1.338412 0.71193,-3.018547 0,-1.708611 -0.62649,-3.189408 -0.6265,-1.480796 -1.73709,-2.562916 -1.08212,-1.110598 -2.5914,-1.737089 -1.48079,-0.62649 -3.21788,-0.62649 -3.16093,0 -4.84107,1.651657 -1.68013,1.623181 -1.68013,5.011927 0,1.850995 0.54106,3.445699 0.56954,1.566227 1.56623,2.733778 0.99669,1.139074 2.3351,1.794042 1.36689,0.654968 2.96159,0.654968 z"
         id="path20727" />
      <path
         d="m 172.83236,21.719964 q 0.11391,0.05695 0.34172,0.05695 0.62649,0 0.62649,-0.825829 v -8.856302 q 0,-1.680134 0.7404,-2.3920558 0.76888,-0.7119213 2.53444,-0.7119213 1.79404,0 2.53444,0.7403982 0.7404,0.7403979 0.7404,2.5344399 0,0.683445 -0.0854,2.021857 -0.0854,1.309935 -0.19934,2.99007 -0.0854,1.680134 -0.17086,3.61656 -0.0854,1.907949 -0.0854,3.787422 0,2.904639 0.39868,5.011926 0.39867,2.107288 1.13907,3.502653 0.7404,1.366889 1.76557,2.050334 1.02516,0.654968 2.30662,0.654968 0.71192,0 1.28146,-0.170861 0.59801,-0.199338 1.39537,-0.199338 0.56953,0 0.93973,0.598013 0.39868,0.569538 0.39868,1.395366 0,0.740399 -0.45563,1.395366 -0.42715,0.654968 -1.19603,1.139074 -0.7404,0.484107 -1.73709,0.768876 -0.99669,0.256291 -2.07881,0.256291 -2.3351,0 -4.27153,-1.423843 -1.93642,-1.452319 -2.90464,-4.413912 -0.0854,-0.45563 -0.28476,-0.45563 -0.22782,0 -0.3702,0.45563 -0.76888,2.07881 -2.02186,3.758945 -1.2245,1.651657 -2.87616,2.847685 -1.62318,1.167551 -3.58809,1.794042 -1.93642,0.626491 -4.10066,0.626491 -2.27815,0 -4.1861,-0.768875 -1.87947,-0.740398 -3.24636,-2.078811 -1.36689,-1.366889 -2.13577,-3.189407 -0.76887,-1.850996 -0.76887,-3.98676 0,-2.733778 1.13907,-5.154311 1.13908,-2.420532 3.0755,-4.214574 1.96491,-1.822519 4.5563,-2.876163 2.59139,-1.053643 5.52451,-1.053643 1.19603,0 2.53444,0.199338 1.33841,0.170861 2.79073,0.569537 z m -8.17286,17.427835 q 1.62318,0 2.87617,-0.711921 1.28145,-0.711922 2.24967,-1.794042 0.99669,-1.110597 1.68013,-2.420533 0.68345,-1.338412 1.1106,-2.591394 0.42715,-1.252981 0.62649,-2.249671 0.19934,-0.99669 0.19934,-1.423843 0,-0.313245 -0.17086,-0.54106 -0.17086,-0.256292 -0.51259,-0.398676 -0.76887,-0.199338 -1.5947,-0.341722 -0.82583,-0.170861 -1.62318,-0.284769 -0.79735,-0.113907 -1.53775,-0.170861 -0.71192,-0.05695 -1.30994,-0.05695 -1.70861,0 -3.10397,0.512584 -1.39537,0.512583 -2.39206,1.452319 -0.96821,0.939736 -1.50927,2.249672 -0.54106,1.281458 -0.54106,2.819208 0,1.366889 0.39867,2.477487 0.42716,1.08212 1.13908,1.850995 0.7404,0.768875 1.76556,1.196028 1.02517,0.427153 2.24967,0.427153 z"
         id="path20729" />
      <path
         d="m 192.2251,13.490153 q -0.82583,0 -1.56623,-0.227815 -0.71192,-0.256292 -1.25298,-0.683444 -0.51258,-0.45563 -0.82583,-1.053644 -0.31324,-0.598014 -0.31324,-1.309935 0,-1.1960283 0.93973,-1.9364265 0.96822,-0.7403982 2.56292,-0.7403982 0.7404,0 1.42384,0.2847685 0.68345,0.2562917 1.19603,0.7119214 0.54106,0.4556297 0.85431,1.0821205 0.31324,0.5980143 0.31324,1.2529813 0,1.224505 -0.91126,1.936426 -0.88278,0.683445 -2.42053,0.683445 z m -3.90133,8.685441 q 0,-0.99669 0.85431,-1.623181 0.88278,-0.654968 2.30662,-0.654968 2.56292,0 2.73378,1.765565 0.11391,1.224505 0.22781,2.762255 0.14239,1.53775 0.2563,3.274838 0.14238,1.708612 0.22781,3.559607 0.11391,1.822519 0.19934,3.616561 0.0854,1.765565 0.14238,3.417222 0.057,1.651658 0.057,3.018547 0,1.423843 -1.02517,2.135764 -0.99669,0.711922 -2.93312,0.711922 -0.88278,0 -1.39536,-0.427153 -0.48411,-0.398676 -0.48411,-1.196028 0,-3.929806 -0.19934,-7.347029 -0.17086,-3.445699 -0.39867,-6.122524 -0.19934,-2.676824 -0.39868,-4.442389 -0.17086,-1.794042 -0.17086,-2.449009 z"
         id="path20731" />
    </g>
  </g>
</svg>
