<?xml version="1.0" encoding="UTF-8" standalone="no"?>
<!-- Generator: Adobe Illustrator 19.0.0, SVG Export Plug-In . SVG Version: 6.00 Build 0)  -->

<svg
   version="1.1"
   id="Layer_1"
   x="0px"
   y="0px"
   viewBox="0 0 512.001 512.001"
   style="enable-background:new 0 0 512.001 512.001;"
   xml:space="preserve"
   sodipodi:docname="foodi-logo.svg"
   inkscape:version="1.1 (c4e8f9ed74, 2021-05-24)"
   xmlns:inkscape="http://www.inkscape.org/namespaces/inkscape"
   xmlns:sodipodi="http://sodipodi.sourceforge.net/DTD/sodipodi-0.dtd"
   xmlns="http://www.w3.org/2000/svg"
   xmlns:svg="http://www.w3.org/2000/svg"><defs
   id="defs71" /><sodipodi:namedview
   id="namedview69"
   pagecolor="#ffffff"
   bordercolor="#666666"
   borderopacity="1.0"
   inkscape:pageshadow="2"
   inkscape:pageopacity="0.0"
   inkscape:pagecheckerboard="0"
   showgrid="false"
   inkscape:zoom="1.4570285"
   inkscape:cx="256.34365"
   inkscape:cy="255.31416"
   inkscape:window-width="1920"
   inkscape:window-height="1011"
   inkscape:window-x="0"
   inkscape:window-y="0"
   inkscape:window-maximized="1"
   inkscape:current-layer="Layer_1" />
<g
   id="g6">
	<g
   id="g4">
		<path
   d="M490.638,118.806c-7.864-11.565-22.053-17.299-39.956-16.138c-15.864,1.027-33.234,7.466-48.908,18.131    c-6.311,4.291-12.125,9.138-17.256,14.341c10.525-22.849,15.129-45.867,13.351-67.439c-1.858-22.525-10.711-42.758-24.291-55.51    c-13.612-12.783-30.225-15.703-42.324-7.438c-16.914,11.555-15.773,28.089-14.668,44.08c1.056,15.299,2.237,32.444-8.381,54.234    c-15.791-3.799-33.456-5.729-52.667-5.729c-18.897,0-36.282,1.869-51.831,5.545c-10.528-21.708-9.348-38.801-8.294-54.055    c1.105-15.988,2.248-32.521-14.668-44.078c-12.267-8.373-28.469-5.539-42.277,7.401c-13.56,12.708-22.423,32.882-24.316,55.352    c-1.823,21.627,2.774,44.722,13.333,67.643c-5.132-5.203-10.944-10.054-17.254-14.347c-15.676-10.665-33.046-17.105-48.91-18.132    c-17.902-1.166-32.09,4.572-39.954,16.135c-7.867,11.56-7.987,26.861-0.338,43.086c6.781,14.383,19.147,28.174,34.818,38.831    c14.98,10.199,31.167,16.404,46.133,17.916c-3.552,22.453-4.055,47.84-1.533,77.166c2.244,26.077,7.487,51.06,15.58,74.33    c-2.653,8.85-3.996,18.865-3.996,29.836c0,61.776,41.883,112.034,93.364,112.034c18.241,0,35.566-6.123,50.607-17.801    c15.041,11.679,32.366,17.801,50.607,17.801c51.48,0,93.364-50.258,93.364-112.034c0-10.883-1.317-20.807-3.917-29.562    c8.05-23.309,13.278-48.383,15.534-74.605c2.477-28.799,1.899-54.663-1.688-77.132c14.962-1.477,31.187-7.695,46.251-17.945    c15.676-10.66,28.044-24.451,34.824-38.834C498.624,145.665,498.503,130.363,490.638,118.806z M337.733,47.374    c-1.125-16.28-0.732-20.874,5.478-25.117c4.044-2.762,10.882,0.712,15.857,5.387c9.657,9.068,16.266,24.695,17.676,41.799    c1.565,18.986-2.973,39.625-13.138,60.31c-10.138-8.381-21.83-15.18-34.975-20.317C340.25,83.857,338.817,63.079,337.733,47.374z     M135.274,69.284c1.437-17.057,8.05-32.633,17.688-41.665c4.969-4.657,11.79-8.118,15.829-5.364    c6.21,4.243,6.602,8.835,5.476,25.111c-1.082,15.647-2.51,36.342,8.985,61.804c-13.191,5.095-24.907,11.857-35.04,20.202    C138.15,108.756,133.68,88.195,135.274,69.284z M106.38,197.723c-11.92-0.671-25.84-5.833-38.611-14.529    c-12.407-8.436-22.456-19.497-27.57-30.345c-4.256-9.029-4.734-17.091-1.309-22.125c3.422-5.033,11.096-7.551,21.059-6.906    c11.966,0.775,25.946,6.061,38.356,14.505c9.524,6.48,17.557,14.374,23.133,22.637    C115.078,171.821,110.037,184.137,106.38,197.723z M390.469,293.982c-1.499,17.413-4.392,34.259-8.627,50.33    c-5.973-6.716-13.385-12.166-22.215-16.281c-5.306-2.474-11.611-0.175-14.083,5.13c-2.472,5.306-0.176,11.611,5.131,14.083    c11.978,5.582,19.893,14.261,24.201,26.542c2.587,7.352,3.899,16.161,3.899,26.181c0,50.088-32.373,90.837-72.167,90.837    c-15.739,0-30.717-6.313-43.315-18.256c-4.088-3.876-10.495-3.876-14.584,0c-12.598,11.944-27.576,18.256-43.315,18.256    c-39.792,0-72.167-40.749-72.167-90.837c0-10.005,1.317-18.82,3.904-26.205c0.078-0.206,0.16-0.41,0.225-0.622    c8.375-22.935,30.008-33.627,68.037-33.627c8.413,0,16.143,0.55,22.98,1.634c18.332,2.901,36.922,2.901,55.259,0    c4.326-0.687,9.031-1.163,13.984-1.414c5.846-0.297,10.345-5.277,10.047-11.123c-0.298-5.846-5.295-10.351-11.122-10.047    c-5.703,0.289-11.165,0.845-16.227,1.648c-16.135,2.552-32.496,2.552-48.624,0c-7.928-1.258-16.775-1.896-26.297-1.896    c-21.576,0-38.874,3.156-52.88,9.649c-8.849,4.103-16.279,9.543-22.272,16.254c-4.274-16.061-7.184-32.876-8.677-50.235    c-2.789-32.419-1.604-60.542,3.527-83.602c3.723-16.836,9.652-31.472,17.641-43.534c3.096-4.71,6.577-9.113,10.371-13.11    c12.279-13.031,28.484-22.554,48.161-28.306c15.657-4.576,33.917-6.896,54.273-6.896c20.647,0,39.165,2.387,55.036,7.094    c19.607,5.819,35.794,15.401,48.141,28.51c1.47,1.548,2.893,3.162,4.234,4.796c2.178,2.654,4.236,5.447,6.137,8.328    c7.931,11.94,13.878,26.459,17.67,43.149C391.998,233.547,393.248,261.664,390.469,293.982z M471.801,152.851    c-5.114,10.848-15.162,21.907-27.573,30.347c-12.895,8.777-26.883,13.949-38.807,14.553c-3.701-13.48-8.754-25.697-15.083-36.454    c5.593-8.396,13.704-16.407,23.356-22.97c12.411-8.444,26.39-13.73,38.356-14.505c9.965-0.642,17.637,1.873,21.06,6.908    C476.537,135.758,476.059,143.822,471.801,152.851z"
   id="path2" />
	</g>
</g>
<g
   id="g12">
	<g
   id="g10">
		<path
   d="M328.712,319.612c-1.104-0.14-2.218-0.267-3.339-0.384c-5.826-0.609-11.032,3.624-11.636,9.446    c-0.606,5.821,3.624,11.031,9.445,11.636c0.961,0.1,1.918,0.21,2.865,0.331c0.453,0.057,0.902,0.085,1.346,0.085    c5.26,0,9.824-3.913,10.501-9.268C338.629,325.651,334.518,320.348,328.712,319.612z"
   id="path8" />
	</g>
</g>
<g
   id="g18">
	<g
   id="g16">
		<path
   d="M200.806,365.846c-18.322,0-33.229,14.906-33.229,33.228s14.906,33.229,33.229,33.229    c18.323,0,33.227-14.906,33.227-33.229S219.127,365.846,200.806,365.846z M200.806,411.105c-6.634,0-12.031-5.397-12.031-12.031    c0-6.634,5.397-12.03,12.031-12.03c6.634,0,12.03,5.397,12.03,12.03C212.836,405.708,207.439,411.105,200.806,411.105z"
   id="path14" />
	</g>
</g>
<g
   id="g24">
	<g
   id="g22">
		<path
   d="M311.196,365.846c-18.322,0-33.229,14.906-33.229,33.228s14.906,33.229,33.229,33.229s33.227-14.906,33.227-33.229    S329.518,365.846,311.196,365.846z M311.196,411.105c-6.634,0-12.031-5.397-12.031-12.031c0-6.634,5.398-12.03,12.031-12.03    c6.634,0,12.03,5.397,12.03,12.03C323.225,405.708,317.83,411.105,311.196,411.105z"
   id="path20" />
	</g>
</g>
<g
   id="g30">
	<g
   id="g28">
		<path
   d="M175.96,233.93c-5.854,0-10.599,4.745-10.599,10.599v6.474c0,5.854,4.745,10.599,10.599,10.599    s10.599-4.745,10.599-10.599v-6.474C186.558,238.675,181.813,233.93,175.96,233.93z"
   id="path26" />
	</g>
</g>
<g
   id="g36">
	<g
   id="g34">
		<path
   d="M336.041,233.93c-5.853,0-10.599,4.745-10.599,10.599v6.474c0,5.854,4.746,10.599,10.599,10.599    s10.599-4.745,10.599-10.599v-6.474C346.64,238.675,341.895,233.93,336.041,233.93z"
   id="path32" />
	</g>
</g>
<g
   id="g38">
</g>
<g
   id="g40">
</g>
<g
   id="g42">
</g>
<g
   id="g44">
</g>
<g
   id="g46">
</g>
<g
   id="g48">
</g>
<g
   id="g50">
</g>
<g
   id="g52">
</g>
<g
   id="g54">
</g>
<g
   id="g56">
</g>
<g
   id="g58">
</g>
<g
   id="g60">
</g>
<g
   id="g62">
</g>
<g
   id="g64">
</g>
<g
   id="g66">
</g>
<path
   style="fill:#217844;stroke:#84dccf;stroke-width:0.686328"
   d="m 194.23093,510.89702 c -6.56342,-0.94581 -15.95669,-3.8778 -22.79282,-7.11449 -29.39569,-13.91793 -50.4473,-44.0664 -57.28126,-82.03374 -2.54182,-14.12155 -2.00039,-35.50809 1.21108,-47.83775 0.95991,-3.68535 0.93442,-3.86665 -1.74958,-12.43906 -9.82524,-31.38083 -14.032444,-61.18219 -14.066328,-99.6377 -0.01503,-17.08474 0.251999,-23.82273 1.273198,-32.12426 0.75123,-6.10682 1.03536,-10.72455 0.67866,-11.02952 -0.33748,-0.28854 -2.924866,-0.90033 -5.749746,-1.35954 C 83.644941,215.35246 66.670833,207.8683 53.876778,198.85655 45.337626,192.84183 32.615997,180.09858 27.596511,172.53161 14.294359,152.47837 12.188252,133.36439 21.709707,119.1059 c 7.112864,-10.6516 19.195181,-16.0886 35.598713,-16.0193 21.473596,0.0907 45.5686,10.32703 64.71022,27.49096 2.64569,2.37234 4.93746,4.18623 5.09282,4.03087 0.15536,-0.15536 -0.47529,-2.09182 -1.40144,-4.30324 -15.96777,-38.127115 -15.20497,-76.59529 2.07206,-104.494595 4.56452,-7.370874 14.97161,-17.5938372 21.21446,-20.839114 12.35708,-6.4236936 23.28644,-6.0280531 32.8552,1.1893518 9.02883,6.8101452 13.09051,14.9646382 13.5113,27.1260942 0.0979,2.831104 -0.0726,12.559809 -0.37893,21.619344 -0.61618,18.22101 -0.0143,24.519281 3.36569,35.218776 2.83472,8.973504 4.97236,13.310973 6.35799,12.900953 2.75031,-0.81384 16.15005,-3.105681 23.15323,-3.960029 4.79502,-0.584965 15.06215,-0.917422 28.13947,-0.91117 21.48053,0.01029 30.73089,0.786423 45.5448,3.821469 3.53325,0.72389 6.54842,1.31615 6.70036,1.31615 0.51369,0 3.66011,-7.64199 5.32415,-12.931248 3.44882,-10.962325 4.07793,-17.384966 3.43926,-35.111737 -0.91346,-25.353911 -0.36221,-31.162832 3.66162,-38.585264 5.0153,-9.2513076 16.28007,-16.34605114 25.89777,-16.31086212 4.49751,0.0164554 11.20772,1.90036262 16.4285,4.61234102 6.71114,3.486163 17.34424,14.1577261 21.93039,22.0097291 16.51616,28.277514 17.16837,63.808303 1.87177,101.969721 -1.19181,2.9733 -2.06177,5.51115 -1.93324,5.63969 0.12854,0.12853 2.68888,-1.92945 5.68966,-4.57329 19.09511,-16.82382 42.94334,-26.83538 64.13703,-26.9249 16.39134,-0.0692 28.48647,5.36865 35.585,15.99879 9.52486,14.26357 7.42151,33.40436 -5.87309,53.44622 -5.01949,7.56697 -17.74112,20.31022 -26.28027,26.32494 -12.9444,9.11766 -29.45786,16.36077 -42.42407,18.60801 -3.13803,0.54386 -5.80067,1.09805 -5.91698,1.23152 -0.11631,0.13347 0.19981,3.17673 0.70249,6.7628 5.69561,40.63228 0.66595,96.53426 -12.38839,137.69015 -1.95454,6.162 -2.29185,8.01161 -1.75229,9.60859 2.59051,7.6674 3.95298,26.29593 2.8051,38.35308 -4.02836,42.31336 -26.2041,77.35361 -58.67207,92.7087 -25.83769,12.21943 -55.40644,9.892 -78.98687,-6.21725 -2.64237,-1.80516 -5.11315,-3.28211 -5.49063,-3.28211 -0.37748,0 -2.84826,1.47695 -5.49063,3.28211 -16.23236,11.08933 -37.20431,16.04357 -56.27893,13.29487 z m 20.24669,-20.54327 c 11.51147,-1.81621 22.61405,-7.23125 32.76189,-15.97889 6.67914,-5.75755 10.83048,-5.76706 17.47504,-0.04 14.05649,12.11545 29.17265,17.56441 45.79681,16.5085 30.69433,-1.94962 57.10807,-28.36649 65.65508,-65.66289 4.86614,-21.23422 3.48843,-42.91616 -3.66329,-57.65158 -3.32813,-6.85733 -11.36786,-15.02328 -18.9771,-19.27509 -6.81714,-3.80922 -8.30287,-5.70246 -8.30287,-10.58022 0,-5.79441 4.10534,-9.995 9.84579,-10.07423 4.57673,-0.0631 14.79074,5.85834 23.29629,13.50586 1.99649,1.79508 3.74215,3.14713 3.87925,3.00455 0.39725,-0.4131 4.32288,-18.87267 5.45548,-25.65338 4.50318,-26.96003 5.68033,-63.18401 2.83107,-87.11984 -4.02353,-33.80061 -14.76201,-59.72616 -32.24506,-77.84811 -8.45875,-8.76785 -16.10066,-14.32756 -27.47572,-19.98938 -21.40047,-10.65186 -43.68575,-15.09938 -75.68722,-15.10505 -21.78654,-0.004 -41.66943,2.73391 -57.79318,7.95782 -9.72603,3.15112 -25.1205,10.94206 -32.32479,16.35916 -31.58189,23.74726 -46.64046,66.13147 -45.00526,126.67292 0.66514,24.6261 2.98075,44.71339 7.4371,64.51487 1.14686,5.09599 2.22914,9.50493 2.40506,9.79765 0.17592,0.29272 1.91821,-0.9049 3.87177,-2.66139 13.96216,-12.55367 30.55487,-19.11902 54.62021,-21.61194 10.38545,-1.07582 34.45549,-0.4231 43.64502,1.18357 9.6495,1.68707 37.47474,1.75322 47.69983,0.1134 3.96354,-0.63565 9.84765,-1.36531 13.07579,-1.62147 5.21157,-0.41354 6.19527,-0.29946 8.77761,1.01795 1.59954,0.81603 3.51269,2.47498 4.25143,3.68657 2.68213,4.39886 1.20254,11.10604 -3.06709,13.90361 -0.95616,0.62649 -4.28434,1.41887 -7.4108,1.76435 -3.12135,0.34493 -9.38135,1.16256 -13.91112,1.81697 -12.19413,1.76167 -40.31395,1.65191 -51.13147,-0.19958 -6.51112,-1.11442 -11.01649,-1.34545 -25.73731,-1.31979 -16.51056,0.0288 -18.46022,0.16312 -26.08048,1.79706 -15.20535,3.26034 -24.01418,7.71724 -32.0145,16.198 -7.63982,8.09861 -11.62748,18.35746 -13.08627,33.66635 -1.81767,19.07506 2.36927,40.65611 11.23699,57.91975 11.57829,22.54053 31.6878,38.36409 52.39465,41.22772 4.16318,0.57575 13.16313,0.46066 17.50137,-0.22379 z M 109.74632,188.07722 c 1.80517,-5.46067 5.25158,-13.8604 7.6587,-18.66606 l 4.37659,-8.73755 -2.69003,-3.46803 c -13.26245,-17.09813 -36.215313,-30.7223 -56.102061,-33.30059 -12.548017,-1.62683 -21.701438,1.45242 -25.403661,8.5459 -1.446482,2.77147 -1.374097,10.12029 0.145781,14.80032 7.185045,22.12429 33.737991,43.81653 60.828281,49.69323 8.24896,1.78944 7.4557,2.41824 11.1864,-8.86722 z m 302.09624,9.20737 c 26.66444,-4.72172 55.11729,-27.52592 62.42678,-50.03338 1.51987,-4.68003 1.59226,-12.02885 0.14578,-14.80032 -4.67403,-8.95547 -17.77117,-11.33788 -35.55359,-6.46731 -6.91873,1.89503 -20.37214,8.50692 -27.0645,13.30128 -6.12595,4.38859 -14.74985,12.5859 -18.98199,18.04303 l -2.78439,3.59034 4.4698,9.10674 c 3.53665,7.20554 8.24204,19.37762 10.48494,27.12286 0.30286,1.04583 1.57968,1.0713 6.85717,0.13676 z m -46.17325,-71.17175 c 10.10655,-22.66735 13.71667,-44.749337 10.41307,-63.693548 -3.19601,-18.327276 -12.42401,-34.050837 -23.12133,-39.396351 -5.62661,-2.811649 -8.04807,-2.736193 -11.47242,0.3575 -4.56565,4.124797 -4.86448,6.53148 -3.87182,31.182666 0.84499,20.983859 -0.947,33.818399 -6.78208,48.574343 -2.72972,6.90301 -2.7552,7.01703 -1.56869,7.02147 3.2609,0.0122 29.7811,15.26678 32.74029,18.83238 1.37879,1.66135 1.77909,1.34678 3.66298,-2.87846 z m -214.43266,1.28902 c 5.45925,-4.30261 14.98733,-10.01722 23.28463,-13.96533 4.80062,-2.28428 8.79095,-4.19966 8.86741,-4.2564 0.0765,-0.0568 -0.93902,-2.81837 -2.25659,-6.13697 -1.31758,-3.318588 -3.14331,-9.175619 -4.05717,-13.015612 -2.90202,-12.194155 -3.33599,-17.846666 -2.69642,-35.121277 0.94193,-25.441162 0.70184,-27.398911 -3.86617,-31.52583 -3.42434,-3.093693 -5.8458,-3.169149 -11.47241,-0.3575 -10.8017,5.397673 -19.94136,21.091503 -23.20467,39.84506 -1.51329,8.696572 -1.00286,25.594251 1.06292,35.187241 2.32875,10.814198 9.78081,31.317658 11.38252,31.317658 0.25027,0 1.58044,-0.88697 2.95595,-1.97104 z"
   id="path165" /><path
   style="fill:#217844;stroke:#84dccf;stroke-width:0.686328"
   d="m 331.15985,259.87458 c -3.61608,-1.93932 -5.49703,-6.08308 -5.49703,-12.11003 0,-3.80743 0.3559,-5.60459 1.56135,-7.88412 3.86705,-7.31272 14.15126,-7.30982 17.82636,0.005 1.65811,3.30026 1.65811,12.45793 0,15.75819 -2.53768,5.05094 -8.80325,6.95936 -13.89068,4.23094 z"
   id="path204" /><path
   style="fill:#217844;stroke:#84dccf;stroke-width:0.686328"
   d="m 170.48252,259.59003 c -3.51833,-2.3504 -4.73208,-5.38355 -4.73208,-11.82548 0,-3.85906 0.35659,-6.20038 1.20001,-7.8791 3.68623,-7.33699 14.0789,-7.33062 17.84347,0.011 2.17683,4.24521 2.16882,11.6186 -0.0171,15.75226 -2.80924,5.31236 -9.48619,7.15339 -14.29429,3.94137 z"
   id="path243" /><path
   style="fill:#217844;stroke:#84dccf;stroke-width:0.686328"
   d="m 319.38877,338.59496 c -2.93156,-1.69991 -5.39353,-5.70011 -5.39353,-8.76338 0,-3.53558 2.40753,-7.40018 5.63623,-9.04734 2.36406,-1.20605 3.58743,-1.39068 6.91221,-1.04317 2.22187,0.23223 4.87704,0.91683 5.90038,1.52133 6.44165,3.80517 6.62079,13.36214 0.32823,17.51074 -2.83344,1.86805 -10.01971,1.77238 -13.38352,-0.17818 z"
   id="path282" /><path
   style="fill:#217844;stroke:#84dccf;stroke-width:0.686328"
   d="m 302.95826,430.78549 c -11.42188,-2.98161 -20.5916,-12.26663 -23.62833,-23.92542 -5.72056,-21.96275 13.76486,-43.49386 36.40918,-40.23162 17.91381,2.58075 30.87966,19.9589 27.8917,37.38332 -2.74743,16.02176 -16.56851,27.95282 -32.38089,27.95282 -2.07614,0 -5.80739,-0.53059 -8.29166,-1.1791 z m 12.92131,-20.38729 c 1.38961,-0.58062 3.12197,-1.58437 3.84969,-2.23057 1.89898,-1.68624 3.84194,-6.26428 3.8595,-9.09383 0.0207,-3.3262 -2.59514,-8.22409 -5.38067,-10.07494 -10.15836,-6.74974 -22.92682,3.55288 -18.25641,14.73074 1.42203,3.4034 2.88536,4.93398 6.15078,6.43347 3.37101,1.54797 6.45739,1.6222 9.77711,0.23513 z"
   id="path321" /><path
   style="fill:#217844;stroke:#84dccf;stroke-width:0.686328"
   d="m 192.45939,430.78549 c -12.38489,-3.233 -21.85791,-13.76169 -24.08922,-26.77372 -2.98796,-17.42442 9.97789,-34.80257 27.89169,-37.38332 22.66828,-3.26569 42.1358,18.24563 36.40918,40.23162 -3.79299,14.56228 -17.19728,25.10452 -31.91999,25.10452 -2.07614,0 -5.80739,-0.53059 -8.29166,-1.1791 z M 205.3807,410.3982 c 3.4034,-1.42203 4.93398,-2.88536 6.43347,-6.15078 1.70484,-3.71263 1.60626,-7.63908 -0.27519,-10.96096 -4.93864,-8.71964 -17.12604,-8.54908 -21.5976,0.30225 -1.80807,3.57904 -1.95511,6.63097 -0.48857,10.14089 1.42203,3.4034 2.88536,4.93398 6.15078,6.43347 3.37101,1.54797 6.45739,1.6222 9.77711,0.23513 z"
   id="path360" /></svg>
