<?xml version="1.0" encoding="UTF-8" standalone="no"?>
<!-- Created with Inkscape (http://www.inkscape.org/) -->

<svg
   width="800"
   height="200"
   viewBox="0 0 211.66667 52.916665"
   version="1.1"
   id="svg5"
   inkscape:version="1.1 (c4e8f9ed74, 2021-05-24)"
   sodipodi:docname="foodi-dark.svg"
   xmlns:inkscape="http://www.inkscape.org/namespaces/inkscape"
   xmlns:sodipodi="http://sodipodi.sourceforge.net/DTD/sodipodi-0.dtd"
   xmlns="http://www.w3.org/2000/svg"
   xmlns:svg="http://www.w3.org/2000/svg">
  <sodipodi:namedview
     id="namedview7"
     pagecolor="#ffffff"
     bordercolor="#666666"
     borderopacity="1.0"
     inkscape:pageshadow="2"
     inkscape:pageopacity="0.0"
     inkscape:pagecheckerboard="0"
     inkscape:document-units="mm"
     showgrid="false"
     units="px"
     width="800px"
     fit-margin-top="0"
     fit-margin-left="0"
     fit-margin-right="0"
     fit-margin-bottom="0"
     inkscape:zoom="0.96102398"
     inkscape:cx="285.63283"
     inkscape:cy="77.0012"
     inkscape:window-width="1920"
     inkscape:window-height="1011"
     inkscape:window-x="0"
     inkscape:window-y="0"
     inkscape:window-maximized="1"
     inkscape:current-layer="layer2" />
  <defs
     id="defs2" />
  <g
     inkscape:groupmode="layer"
     id="layer3"
     inkscape:label="Logo">
    <g
       id="g216"
       transform="matrix(0.09789419,0,0,0.08137774,6.5461502,4.6782858)"
       style="stroke:#404e40;stroke-opacity:1;fill:#217844">
      <g
         id="g116"
         style="stroke:#404e40;stroke-opacity:1;fill:#217844">
        <g
           id="g114"
           style="stroke:#404e40;stroke-opacity:1;fill:#217844">
          <path
             d="m 490.638,118.806 c -7.864,-11.565 -22.053,-17.299 -39.956,-16.138 -15.864,1.027 -33.234,7.466 -48.908,18.131 -6.311,4.291 -12.125,9.138 -17.256,14.341 10.525,-22.849 15.129,-45.867 13.351,-67.439 -1.858,-22.525 -10.711,-42.758 -24.291,-55.51 -13.612,-12.783 -30.225,-15.703 -42.324,-7.438 -16.914,11.555 -15.773,28.089 -14.668,44.08 1.056,15.299 2.237,32.444 -8.381,54.234 -15.791,-3.799 -33.456,-5.729 -52.667,-5.729 -18.897,0 -36.282,1.869 -51.831,5.545 -10.528,-21.708 -9.348,-38.801 -8.294,-54.055 1.105,-15.988 2.248,-32.521 -14.668,-44.078 -12.267,-8.373 -28.469,-5.539 -42.277,7.401 -13.56,12.708 -22.423,32.882 -24.316,55.352 -1.823,21.627 2.774,44.722 13.333,67.643 -5.132,-5.203 -10.944,-10.054 -17.254,-14.347 -15.676,-10.665 -33.046,-17.105 -48.91,-18.132 -17.902,-1.166 -32.09,4.572 -39.954,16.135 -7.867,11.56 -7.987,26.861 -0.338,43.086 6.781,14.383 19.147,28.174 34.818,38.831 14.98,10.199 31.167,16.404 46.133,17.916 -3.552,22.453 -4.055,47.84 -1.533,77.166 2.244,26.077 7.487,51.06 15.58,74.33 -2.653,8.85 -3.996,18.865 -3.996,29.836 0,61.776 41.883,112.034 93.364,112.034 18.241,0 35.566,-6.123 50.607,-17.801 15.041,11.679 32.366,17.801 50.607,17.801 51.48,0 93.364,-50.258 93.364,-112.034 0,-10.883 -1.317,-20.807 -3.917,-29.562 8.05,-23.309 13.278,-48.383 15.534,-74.605 2.477,-28.799 1.899,-54.663 -1.688,-77.132 14.962,-1.477 31.187,-7.695 46.251,-17.945 15.676,-10.66 28.044,-24.451 34.824,-38.834 7.647,-16.224 7.526,-31.526 -0.339,-43.083 z M 337.733,47.374 c -1.125,-16.28 -0.732,-20.874 5.478,-25.117 4.044,-2.762 10.882,0.712 15.857,5.387 9.657,9.068 16.266,24.695 17.676,41.799 1.565,18.986 -2.973,39.625 -13.138,60.31 -10.138,-8.381 -21.83,-15.18 -34.975,-20.317 11.619,-25.579 10.186,-46.357 9.102,-62.062 z m -202.459,21.91 c 1.437,-17.057 8.05,-32.633 17.688,-41.665 4.969,-4.657 11.79,-8.118 15.829,-5.364 6.21,4.243 6.602,8.835 5.476,25.111 -1.082,15.647 -2.51,36.342 8.985,61.804 -13.191,5.095 -24.907,11.857 -35.04,20.202 C 138.15,108.756 133.68,88.195 135.274,69.284 Z M 106.38,197.723 C 94.46,197.052 80.54,191.89 67.769,183.194 55.362,174.758 45.313,163.697 40.199,152.849 35.943,143.82 35.465,135.758 38.89,130.724 c 3.422,-5.033 11.096,-7.551 21.059,-6.906 11.966,0.775 25.946,6.061 38.356,14.505 9.524,6.48 17.557,14.374 23.133,22.637 -6.36,10.861 -11.401,23.177 -15.058,36.763 z m 284.089,96.259 c -1.499,17.413 -4.392,34.259 -8.627,50.33 -5.973,-6.716 -13.385,-12.166 -22.215,-16.281 -5.306,-2.474 -11.611,-0.175 -14.083,5.13 -2.472,5.306 -0.176,11.611 5.131,14.083 11.978,5.582 19.893,14.261 24.201,26.542 2.587,7.352 3.899,16.161 3.899,26.181 0,50.088 -32.373,90.837 -72.167,90.837 -15.739,0 -30.717,-6.313 -43.315,-18.256 -4.088,-3.876 -10.495,-3.876 -14.584,0 -12.598,11.944 -27.576,18.256 -43.315,18.256 -39.792,0 -72.167,-40.749 -72.167,-90.837 0,-10.005 1.317,-18.82 3.904,-26.205 0.078,-0.206 0.16,-0.41 0.225,-0.622 8.375,-22.935 30.008,-33.627 68.037,-33.627 8.413,0 16.143,0.55 22.98,1.634 18.332,2.901 36.922,2.901 55.259,0 4.326,-0.687 9.031,-1.163 13.984,-1.414 5.846,-0.297 10.345,-5.277 10.047,-11.123 -0.298,-5.846 -5.295,-10.351 -11.122,-10.047 -5.703,0.289 -11.165,0.845 -16.227,1.648 -16.135,2.552 -32.496,2.552 -48.624,0 -7.928,-1.258 -16.775,-1.896 -26.297,-1.896 -21.576,0 -38.874,3.156 -52.88,9.649 -8.849,4.103 -16.279,9.543 -22.272,16.254 -4.274,-16.061 -7.184,-32.876 -8.677,-50.235 -2.789,-32.419 -1.604,-60.542 3.527,-83.602 3.723,-16.836 9.652,-31.472 17.641,-43.534 3.096,-4.71 6.577,-9.113 10.371,-13.11 12.279,-13.031 28.484,-22.554 48.161,-28.306 15.657,-4.576 33.917,-6.896 54.273,-6.896 20.647,0 39.165,2.387 55.036,7.094 19.607,5.819 35.794,15.401 48.141,28.51 1.47,1.548 2.893,3.162 4.234,4.796 2.178,2.654 4.236,5.447 6.137,8.328 7.931,11.94 13.878,26.459 17.67,43.149 5.243,23.135 6.493,51.252 3.714,83.57 z m 81.332,-141.131 c -5.114,10.848 -15.162,21.907 -27.573,30.347 -12.895,8.777 -26.883,13.949 -38.807,14.553 -3.701,-13.48 -8.754,-25.697 -15.083,-36.454 5.593,-8.396 13.704,-16.407 23.356,-22.97 12.411,-8.444 26.39,-13.73 38.356,-14.505 9.965,-0.642 17.637,1.873 21.06,6.908 3.427,5.028 2.949,13.092 -1.309,22.121 z"
             id="path112"
             style="stroke:#404e40;stroke-opacity:1;fill:#217844" />
        </g>
      </g>
      <g
         id="g122"
         style="stroke:#404e40;stroke-opacity:1;fill:#217844">
        <g
           id="g120"
           style="stroke:#404e40;stroke-opacity:1;fill:#217844">
          <path
             d="m 328.712,319.612 c -1.104,-0.14 -2.218,-0.267 -3.339,-0.384 -5.826,-0.609 -11.032,3.624 -11.636,9.446 -0.606,5.821 3.624,11.031 9.445,11.636 0.961,0.1 1.918,0.21 2.865,0.331 0.453,0.057 0.902,0.085 1.346,0.085 5.26,0 9.824,-3.913 10.501,-9.268 0.735,-5.807 -3.376,-11.11 -9.182,-11.846 z"
             id="path118"
             style="stroke:#404e40;stroke-opacity:1;fill:#217844" />
        </g>
      </g>
      <g
         id="g128"
         style="stroke:#404e40;stroke-opacity:1;fill:#217844">
        <g
           id="g126"
           style="stroke:#404e40;stroke-opacity:1;fill:#217844">
          <path
             d="m 200.806,365.846 c -18.322,0 -33.229,14.906 -33.229,33.228 0,18.322 14.906,33.229 33.229,33.229 18.323,0 33.227,-14.906 33.227,-33.229 0,-18.323 -14.906,-33.228 -33.227,-33.228 z m 0,45.259 c -6.634,0 -12.031,-5.397 -12.031,-12.031 0,-6.634 5.397,-12.03 12.031,-12.03 6.634,0 12.03,5.397 12.03,12.03 0,6.634 -5.397,12.031 -12.03,12.031 z"
             id="path124"
             style="stroke:#404e40;stroke-opacity:1;fill:#217844" />
        </g>
      </g>
      <g
         id="g134"
         style="stroke:#404e40;stroke-opacity:1;fill:#217844">
        <g
           id="g132"
           style="stroke:#404e40;stroke-opacity:1;fill:#217844">
          <path
             d="m 311.196,365.846 c -18.322,0 -33.229,14.906 -33.229,33.228 0,18.322 14.906,33.229 33.229,33.229 18.323,0 33.227,-14.906 33.227,-33.229 0,-18.323 -14.905,-33.228 -33.227,-33.228 z m 0,45.259 c -6.634,0 -12.031,-5.397 -12.031,-12.031 0,-6.634 5.398,-12.03 12.031,-12.03 6.634,0 12.03,5.397 12.03,12.03 -10e-4,6.634 -5.396,12.031 -12.03,12.031 z"
             id="path130"
             style="stroke:#404e40;stroke-opacity:1;fill:#217844" />
        </g>
      </g>
      <g
         id="g140"
         style="stroke:#404e40;stroke-opacity:1;fill:#217844">
        <g
           id="g138"
           style="stroke:#404e40;stroke-opacity:1;fill:#217844">
          <path
             d="m 175.96,233.93 c -5.854,0 -10.599,4.745 -10.599,10.599 v 6.474 c 0,5.854 4.745,10.599 10.599,10.599 5.854,0 10.599,-4.745 10.599,-10.599 v -6.474 c -0.001,-5.854 -4.746,-10.599 -10.599,-10.599 z"
             id="path136"
             style="stroke:#404e40;stroke-opacity:1;fill:#217844" />
        </g>
      </g>
      <g
         id="g146"
         style="stroke:#404e40;stroke-opacity:1;fill:#217844">
        <g
           id="g144"
           style="stroke:#404e40;stroke-opacity:1;fill:#217844">
          <path
             d="m 336.041,233.93 c -5.853,0 -10.599,4.745 -10.599,10.599 v 6.474 c 0,5.854 4.746,10.599 10.599,10.599 5.853,0 10.599,-4.745 10.599,-10.599 v -6.474 c 0,-5.854 -4.745,-10.599 -10.599,-10.599 z"
             id="path142"
             style="stroke:#404e40;stroke-opacity:1;fill:#217844" />
        </g>
      </g>
      <g
         id="g148"
         style="stroke:#404e40;stroke-opacity:1;fill:#217844" />
      <g
         id="g150"
         style="stroke:#404e40;stroke-opacity:1;fill:#217844" />
      <g
         id="g152"
         style="stroke:#404e40;stroke-opacity:1;fill:#217844" />
      <g
         id="g154"
         style="stroke:#404e40;stroke-opacity:1;fill:#217844" />
      <g
         id="g156"
         style="stroke:#404e40;stroke-opacity:1;fill:#217844" />
      <g
         id="g158"
         style="stroke:#404e40;stroke-opacity:1;fill:#217844" />
      <g
         id="g160"
         style="stroke:#404e40;stroke-opacity:1;fill:#217844" />
      <g
         id="g162"
         style="stroke:#404e40;stroke-opacity:1;fill:#217844" />
      <g
         id="g164"
         style="stroke:#404e40;stroke-opacity:1;fill:#217844" />
      <g
         id="g166"
         style="stroke:#404e40;stroke-opacity:1;fill:#217844" />
      <g
         id="g168"
         style="stroke:#404e40;stroke-opacity:1;fill:#217844" />
      <g
         id="g170"
         style="stroke:#404e40;stroke-opacity:1;fill:#217844" />
      <g
         id="g172"
         style="stroke:#404e40;stroke-opacity:1;fill:#217844" />
      <g
         id="g174"
         style="stroke:#404e40;stroke-opacity:1;fill:#217844" />
      <g
         id="g176"
         style="stroke:#404e40;stroke-opacity:1;fill:#217844" />
    </g>
  </g>
  <g
     inkscape:groupmode="layer"
     id="layer2"
     inkscape:label="Name">
    <text
       xml:space="preserve"
       style="font-size:58.3206px;line-height:1.25;font-family:'Gochi Hand';-inkscape-font-specification:'Gochi Hand';letter-spacing:0px;word-spacing:0px;stroke-width:0.455629;fill:#f2f2f2"
       x="61.00375"
       y="42.536545"
       id="text16278"
       transform="scale(1.0349326,0.96624651)"><tspan
         sodipodi:role="line"
         style="stroke-width:0.455629;fill:#f2f2f2"
         x="61.00375"
         y="42.536545"
         id="tspan16280">Foodi</tspan></text>
  </g>
</svg>
